<svg width="276" height="208" viewBox="0 0 276 208" fill="none" xmlns="http://www.w3.org/2000/svg">
<g filter="url(#filter0_d_2403_774)">
<circle cx="140" cy="100" r="100" fill="#68B738"/>
<g clip-path="url(#clip0_2403_774)">
<path d="M250.2 55.5999C252.509 51.9261 255.578 48.7891 259.2 46.3999C261.2 44.9999 262.4 44.9999 263.6 47.5999C265.2 51.3999 266.6 55.3999 265.4 59.5999C265.182 60.3122 265.14 61.0671 265.28 61.799C265.419 62.5309 265.735 63.2177 266.2 63.7999C267.4 65.3999 268.4 66.9999 269.4 68.3999C270.761 70.1274 271.644 72.1825 271.96 74.359C272.276 76.5354 272.014 78.7567 271.2 80.7999C270.466 82.7835 270.327 84.9384 270.8 86.9999C271.2 88.9799 271.2 91.0199 270.8 92.9999C270.638 94.4827 270.038 95.8837 269.076 97.0237C268.115 98.1637 266.835 98.991 265.4 99.3999C262.842 99.8867 260.559 101.314 259 103.4C258.811 103.707 258.546 103.961 258.231 104.136C257.916 104.311 257.561 104.402 257.2 104.4C254.8 104.8 248.8 99.3999 248.8 96.9999V95.7999C249 88.5999 248.6 87.9999 242 84.9999C240.619 84.5127 239.381 83.6877 238.4 82.5999C237.2 80.9999 235.6 81.1999 233.8 81.7999C232 82.3999 231 83.5999 231.2 85.5999C231.803 90.4416 232.004 95.325 231.8 100.2C231.813 100.756 231.95 101.303 232.2 101.8C238.4 110.8 240.8 121.4 243.8 131.6C246.2 139.4 250.6 143.6 258.6 144.2C259.88 144.302 261.151 144.503 262.4 144.8C264.044 145.064 265.57 145.815 266.783 146.956C267.995 148.097 268.837 149.575 269.2 151.2C270.6 155.4 269.8 156.4 265.6 156.4H252.6C250.917 156.485 249.267 155.911 248 154.8C245.976 153.092 243.677 151.739 241.2 150.8C238.462 149.789 236.093 147.977 234.4 145.6C232.057 142.327 229.376 139.31 226.4 136.6C220.8 130.8 214.8 125.2 209.6 119.2C205.641 115.112 203.358 109.688 203.2 104C203.2 102.2 202.8 101.4 200.8 102.2C200.201 102.58 199.509 102.787 198.8 102.8C193.2 102.8 190.4 106.2 188.4 111.2C186.6 115.4 184.2 119.4 182 123.6C180.753 126.229 180.071 129.091 180 132C180 136.8 181.2 138.4 185.6 140C188.4 141 191 142 192.4 144.8C194 148 193.6 148.8 190.2 149H176.6C175.816 149.078 175.027 148.907 174.346 148.512C173.664 148.117 173.123 147.518 172.8 146.8L169.2 140.8C168.139 139.234 167.459 137.442 167.216 135.566C166.973 133.691 167.173 131.784 167.8 130C168.666 126.527 168.734 122.903 168 119.4C167.496 116.96 167.539 114.439 168.127 112.018C168.715 109.597 169.833 107.337 171.4 105.4C172.6 104 172.6 103.4 170.6 103C162.422 101.263 154.493 98.5079 147 94.7999C146.947 94.7999 146.896 94.7788 146.859 94.7413C146.821 94.7038 146.8 94.6529 146.8 94.5999C140.4 92.1999 139.2 92.5999 137.4 99.1999C135.8 104.8 134.2 110.4 133 116.2C131.6 122.6 133.2 128.6 135.2 134.6C136 137 138.4 136.8 140.2 137.4C144.2 138.6 147.6 140.2 149.2 144.4C150.6 147.6 150.4 148 147 148C143.6 148 140.2 147.8 136.6 148C133.562 148.055 130.597 147.067 128.2 145.2C118.6 138.8 115.8 129 115 118.4C114.6 111.8 111 106.6 106.8 101.6C106 100.6 105.2 100.2 104 101C99.707 103.367 95.2249 105.374 90.6 107C80.9485 110.408 72.4793 116.517 66.2 124.6C63.8553 127.55 62.3368 131.07 61.8 134.8C61.2 138.4 62.2 140 65.8 141C69.4 142 71.2 144 71.6 147.8C71.8 149.4 71.2 150.2 69.6 150.2H53.4C52.8698 150.162 52.3566 149.997 51.9039 149.719C51.4512 149.44 51.0725 149.056 50.8 148.6C48.2877 145.489 46.9433 141.598 47 137.6C46.8951 130.69 47.4982 123.787 48.8 117C49.067 114.967 49.8259 113.03 51.0108 111.358C52.1958 109.685 53.7711 108.326 55.6 107.4C67.4 101.8 73.6 91.1999 79.2 80.1999C80.4 77.9999 79.4 77.5999 77.4 77.7999C71.8027 78.5769 66.4994 80.7809 62 84.1999C56.1084 88.4976 50.5585 93.2451 45.4 98.3999C39.8993 103.987 32.6054 107.457 24.8 108.2C10.2 109 3.40002 100.8 4.00002 87.5999C4.13415 83.0991 5.83132 78.7854 8.80002 75.3999C9.83206 74.0619 11.2395 73.0619 12.8426 72.5275C14.4456 71.9931 16.1716 71.9487 17.8 72.3999C20.8 73.1999 21.6 74.7999 20.4 77.7999C19.8 78.9999 19 79.9999 18.4 81.1999C17.5372 82.4258 16.8631 83.7741 16.4 85.1999C14.2 91.1999 17.2 95.3999 23.4 95.9999C30 96.5999 35.4 93.7999 40.4 89.7999C46.4239 84.9764 51.8014 79.3972 56.4 73.1999C59.8385 68.6747 64.1682 64.9025 69.1217 62.1161C74.0751 59.3298 79.5472 57.5886 85.2 56.9999C89.8 56.3999 93.8 54.3999 98.2 53.1999C106.429 50.6911 114.998 49.4766 123.6 49.5999C127.584 49.7658 131.553 49.0131 135.2 47.3999C145 43.3999 155.2 43.3999 165.4 45.3999C173.4 46.9999 181.4 48.9999 189.2 50.9999C193.842 51.8648 198.615 51.7285 203.2 50.5999C211.977 48.375 220.956 47.0349 230 46.5999C235.925 46.3116 241.83 47.479 247.2 49.9999C251.2 51.7999 251.2 51.7999 250.2 55.5999Z" fill="black"/>
</g>
</g>
<defs>
<filter id="filter0_d_2403_774" x="0" y="0" width="276" height="208" filterUnits="userSpaceOnUse" color-interpolation-filters="sRGB">
<feFlood flood-opacity="0" result="BackgroundImageFix"/>
<feColorMatrix in="SourceAlpha" type="matrix" values="0 0 0 0 0 0 0 0 0 0 0 0 0 0 0 0 0 0 127 0" result="hardAlpha"/>
<feOffset dy="4"/>
<feGaussianBlur stdDeviation="2"/>
<feComposite in2="hardAlpha" operator="out"/>
<feColorMatrix type="matrix" values="0 0 0 0 0 0 0 0 0 0 0 0 0 0 0 0 0 0 0.25 0"/>
<feBlend mode="normal" in2="BackgroundImageFix" result="effect1_dropShadow_2403_774"/>
<feBlend mode="normal" in="SourceGraphic" in2="effect1_dropShadow_2403_774" result="shape"/>
</filter>
<clipPath id="clip0_2403_774">
<rect width="268" height="112" fill="white" transform="translate(4 44)"/>
</clipPath>
</defs>
</svg>
